<svg width="50" height="50" viewBox="0 0 50 50" fill="none" xmlns="http://www.w3.org/2000/svg">
<path d="M24.9062 3.96875C24.8633 3.97656 24.8203 3.98828 24.7812 4C24.3164 4.10547 23.9883 4.52344 24 5V11C23.9961 11.3594 24.1836 11.6953 24.4961 11.8789C24.8086 12.0586 25.1914 12.0586 25.5039 11.8789C25.8164 11.6953 26.0039 11.3594 26 11V5C26.0117 4.71094 25.8945 4.43359 25.6875 4.23828C25.4766 4.03906 25.1914 3.94141 24.9062 3.96875ZM10.6562 9.84375C10.2812 9.91016 9.98046 10.1836 9.87499 10.5469C9.76952 10.9141 9.8789 11.3047 10.1562 11.5625L14.4062 15.8125C14.6484 16.1094 15.0351 16.2461 15.4101 16.1602C15.7812 16.0742 16.0742 15.7813 16.1601 15.4102C16.2461 15.0352 16.1094 14.6484 15.8125 14.4063L11.5625 10.1563C11.3555 9.93359 11.0547 9.82031 10.75 9.84375C10.7187 9.84375 10.6875 9.84375 10.6562 9.84375ZM39.0312 9.84375C38.8047 9.875 38.5937 9.98828 38.4375 10.1563L34.1875 14.4063C33.8906 14.6484 33.7539 15.0352 33.8398 15.4102C33.9258 15.7813 34.2187 16.0742 34.5898 16.1602C34.9648 16.2461 35.3516 16.1094 35.5937 15.8125L39.8437 11.5625C40.1562 11.2656 40.2461 10.8008 40.0625 10.4102C39.875 10.0156 39.4609 9.78906 39.0312 9.84375ZM24.9062 15C24.875 15.0078 24.8437 15.0195 24.8125 15.0313C24.75 15.0352 24.6875 15.0469 24.625 15.0625C24.6133 15.0742 24.6055 15.082 24.5937 15.0938C19.2891 15.3203 15 19.6406 15 25C15 30.5039 19.4961 35 25 35C30.5039 35 35 30.5039 35 25C35 19.6602 30.7461 15.3555 25.4687 15.0938C25.4336 15.0938 25.4102 15.0625 25.375 15.0625C25.2734 15.0234 25.168 15.0039 25.0625 15C25.043 15 25.0195 15 25 15C24.9687 15 24.9375 15 24.9062 15ZM24.9375 17C24.957 17 24.9805 17 25 17C25.0312 17 25.0625 17 25.0937 17C29.4687 17.0508 33 20.6133 33 25C33 29.4219 29.4219 33 25 33C20.582 33 17 29.4219 17 25C17 20.6016 20.5469 17.0352 24.9375 17ZM4.71874 24C4.16796 24.0781 3.78124 24.5898 3.85937 25.1406C3.93749 25.6914 4.44921 26.0781 4.99999 26H11C11.3594 26.0039 11.6953 25.8164 11.8789 25.5039C12.0586 25.1914 12.0586 24.8086 11.8789 24.4961C11.6953 24.1836 11.3594 23.9961 11 24H4.99999C4.96874 24 4.93749 24 4.90624 24C4.87499 24 4.84374 24 4.81249 24C4.78124 24 4.74999 24 4.71874 24ZM38.7187 24C38.168 24.0781 37.7812 24.5898 37.8594 25.1406C37.9375 25.6914 38.4492 26.0781 39 26H45C45.3594 26.0039 45.6953 25.8164 45.8789 25.5039C46.0586 25.1914 46.0586 24.8086 45.8789 24.4961C45.6953 24.1836 45.3594 23.9961 45 24H39C38.9687 24 38.9375 24 38.9062 24C38.875 24 38.8437 24 38.8125 24C38.7812 24 38.75 24 38.7187 24ZM15 33.875C14.7734 33.9062 14.5625 34.0195 14.4062 34.1875L10.1562 38.4375C9.85937 38.6797 9.72265 39.0664 9.80859 39.4414C9.89452 39.8125 10.1875 40.1055 10.5586 40.1914C10.9336 40.2773 11.3203 40.1406 11.5625 39.8438L15.8125 35.5938C16.1094 35.3086 16.1992 34.8672 16.0391 34.4883C15.8828 34.1094 15.5039 33.8672 15.0937 33.875C15.0625 33.875 15.0312 33.875 15 33.875ZM34.6875 33.875C34.3125 33.9414 34.0117 34.2148 33.9062 34.5781C33.8008 34.9453 33.9102 35.3359 34.1875 35.5938L38.4375 39.8438C38.6797 40.1406 39.0664 40.2773 39.4414 40.1914C39.8125 40.1055 40.1055 39.8125 40.1914 39.4414C40.2773 39.0664 40.1406 38.6797 39.8437 38.4375L35.5937 34.1875C35.4062 33.9883 35.1484 33.8789 34.875 33.875C34.8437 33.875 34.8125 33.875 34.7812 33.875C34.75 33.875 34.7187 33.875 34.6875 33.875ZM24.9062 37.9688C24.8633 37.9766 24.8203 37.9883 24.7812 38C24.3164 38.1055 23.9883 38.5234 24 39V45C23.9961 45.3594 24.1836 45.6953 24.4961 45.8789C24.8086 46.0586 25.1914 46.0586 25.5039 45.8789C25.8164 45.6953 26.0039 45.3594 26 45V39C26.0117 38.7109 25.8945 38.4336 25.6875 38.2383C25.4766 38.0391 25.1914 37.9414 24.9062 37.9688Z" fill="black"/>
</svg>
